<?xml version="1.0" standalone="no"?>
<!DOCTYPE svg PUBLIC "-//W3C//DTD SVG 20010904//EN"
 "http://www.w3.org/TR/2001/REC-SVG-20010904/DTD/svg10.dtd">
<svg version="1.0" xmlns="http://www.w3.org/2000/svg"
 width="1876.000000pt" height="1876.000000pt" viewBox="0 0 1876.000000 1876.000000"
 preserveAspectRatio="xMidYMid meet">
<metadata>
Created by potrace 1.14, written by Peter Selinger 2001-2017
</metadata>
<g transform="translate(0.000000,1876.000000) scale(0.100000,-0.100000)"
fill="#000000" stroke="none">
<path d="M9197 14574 c-1 -1 -47 -4 -102 -8 -55 -4 -117 -8 -137 -11 -73 -8
-225 -31 -268 -40 -14 -3 -45 -10 -70 -15 -25 -5 -55 -12 -67 -15 -13 -3 -31
-7 -40 -9 -338 -77 -759 -259 -1073 -464 -54 -36 -270 -191 -280 -202 -3 -3
-39 -34 -80 -69 -477 -404 -842 -944 -1045 -1545 -30 -90 -55 -170 -55 -177 0
-11 -35 -14 -187 -14 -169 0 -297 -7 -364 -20 -22 -5 -47 -9 -109 -19 -14 -2
-45 -9 -70 -15 -25 -7 -56 -14 -70 -17 -14 -2 -67 -18 -119 -35 -370 -119
-676 -305 -947 -574 -202 -201 -335 -385 -460 -636 -69 -138 -151 -362 -169
-457 -2 -12 -6 -30 -9 -40 -15 -49 -44 -232 -53 -326 -9 -104 -9 -296 0 -411
33 -415 193 -842 443 -1183 32 -42 60 -79 63 -82 3 -3 24 -27 46 -55 41 -50
168 -181 240 -245 114 -102 304 -233 456 -313 80 -42 271 -128 294 -131 5 -1
15 -4 20 -7 42 -25 356 -100 475 -114 30 -3 64 -9 75 -12 11 -3 776 -7 1701
-7 l1681 -1 0 303 c0 166 -2 302 -4 302 -1 0 -19 -18 -39 -39 -104 -116 -293
-171 -444 -131 -63 17 -148 63 -196 108 -111 103 -150 208 -154 418 l0 22
-1193 0 c-656 0 -1218 3 -1248 7 -51 6 -67 8 -144 21 -81 13 -221 60 -320 108
-344 168 -596 461 -710 826 -47 150 -60 235 -60 400 0 194 11 266 61 425 80
251 258 505 464 663 312 238 685 331 1080 268 59 -9 160 -36 230 -62 256 -92
482 -260 642 -478 60 -82 65 -87 47 -39 -14 38 -53 223 -64 309 -17 129 -19
178 -20 354 0 172 8 304 20 350 2 8 7 37 10 65 3 27 7 57 10 65 2 8 6 26 9 40
49 255 181 577 338 823 101 158 188 267 333 413 282 286 606 489 985 618 83
28 293 81 355 91 22 3 54 8 70 10 17 3 43 7 59 10 111 17 362 23 516 11 421
-33 828 -173 1190 -410 358 -234 659 -573 855 -963 28 -54 50 -99 50 -100 1
-1 42 11 93 26 51 16 92 27 92 25 0 -2 18 3 39 11 22 7 56 16 76 19 21 4 40 8
44 10 4 3 63 16 131 30 158 32 175 35 230 41 25 3 54 8 65 10 11 2 49 7 85 11
36 4 72 8 80 10 8 1 23 3 32 3 16 1 16 5 -3 54 -271 694 -779 1298 -1425 1697
-137 84 -385 210 -524 265 -88 35 -315 113 -350 120 -8 1 -35 9 -60 16 -56 15
-41 12 -190 42 -183 37 -250 47 -425 63 -64 6 -432 13 -438 8z"/>
<path d="M9911 12781 c-86 -88 -352 -359 -593 -603 -240 -244 -516 -524 -613
-623 -97 -99 -380 -387 -628 -639 -249 -252 -521 -529 -606 -615 -679 -690
-916 -933 -919 -939 -1 -4 350 -7 780 -6 431 0 788 -1 793 -3 6 -2 11 -51 12
-116 0 -61 4 -242 8 -402 3 -159 8 -384 10 -500 3 -145 9 -225 18 -257 59
-192 251 -308 444 -268 139 29 236 114 286 251 21 57 23 79 21 204 -2 150 -13
672 -19 975 -2 102 -7 329 -11 505 -3 176 -7 334 -8 350 l-1 30 -252 0 c-139
0 -253 1 -253 2 0 2 125 129 278 284 366 371 528 536 1012 1028 l405 412 283
-288 c156 -158 485 -492 730 -742 246 -250 500 -507 565 -572 64 -66 117 -120
117 -121 0 -2 -114 -3 -253 -3 l-252 0 -2 -45 c-1 -25 -4 -182 -8 -350 -3
-168 -8 -397 -10 -510 -11 -544 -17 -845 -19 -950 -3 -135 5 -182 39 -252 114
-238 440 -289 619 -98 89 95 107 157 111 390 2 96 7 330 10 520 4 190 8 386 9
435 l1 90 793 0 c435 0 791 3 789 7 -1 5 -182 191 -403 415 -221 225 -465 473
-543 553 -79 80 -342 347 -584 593 -243 247 -523 531 -622 632 -99 100 -369
375 -600 610 -231 234 -497 505 -591 601 -94 96 -175 174 -179 174 -4 0 -78
-72 -164 -159z"/>
<path d="M12807 12004 c-1 -1 -51 -5 -112 -9 -60 -3 -121 -8 -135 -10 -14 -2
-47 -6 -73 -9 -27 -3 -101 -15 -165 -26 -165 -28 -172 -30 -217 -42 -22 -5
-47 -11 -55 -13 -83 -16 -268 -71 -440 -130 -220 -76 -206 -67 -162 -107 15
-14 186 -187 380 -385 l353 -361 92 24 c51 13 106 26 122 29 17 3 53 10 80 15
28 5 70 12 95 16 25 3 56 8 70 10 53 9 398 12 455 4 119 -17 142 -22 239 -51
361 -111 659 -364 825 -703 72 -145 109 -271 136 -451 7 -46 8 -270 1 -300 -2
-11 -7 -41 -10 -66 -10 -75 -44 -198 -78 -284 -72 -184 -163 -321 -313 -470
-190 -190 -420 -318 -664 -370 -37 -8 -80 -17 -96 -20 -61 -13 -325 -12 -408
1 -213 34 -398 106 -572 224 -41 27 -76 50 -77 50 -2 0 -4 -35 -5 -77 -4 -388
-7 -416 -61 -521 -69 -137 -228 -239 -381 -244 -28 -2 -51 -5 -51 -8 0 -18
289 -177 435 -240 105 -45 343 -118 440 -134 17 -3 55 -10 85 -16 50 -10 86
-14 205 -25 48 -5 291 -5 355 -1 188 13 383 52 575 115 699 230 1259 788 1490
1484 43 131 90 321 100 407 16 143 19 201 19 345 1 182 -10 302 -38 440 -35
169 -68 283 -122 417 -294 742 -944 1286 -1724 1442 -135 27 -164 31 -309 42
-84 6 -280 11 -284 8z"/>
<path d="M9631 10370 c-4 -3 -7 -75 -7 -160 l1 -155 183 -1 c123 0 182 3 183
10 1 6 2 77 3 159 1 124 -1 147 -14 148 -49 4 -343 3 -349 -1z"/>
<path d="M10094 10371 c-2 -2 -4 -75 -4 -161 l0 -157 185 1 185 1 -2 159 -3
160 -178 1 c-98 0 -181 -2 -183 -4z"/>
<path d="M9624 9811 l1 -156 185 0 184 0 1 148 c0 82 -2 152 -5 156 -3 4 -86
7 -186 7 l-180 0 0 -155z"/>
<path d="M10090 9808 l0 -158 185 0 186 0 -3 158 -3 157 -182 1 -183 0 0 -158z"/>
<path d="M9689 9070 c-1 -32 -1 -1215 0 -1255 l1 -30 385 0 385 0 1 25 c1 33
1 1205 0 1250 l-1 35 -385 0 -385 0 -1 -25z m731 -11 c0 -5 -4 -9 -8 -9 -5 0
-59 -35 -120 -77 -61 -43 -170 -118 -242 -167 l-130 -90 0 -150 c0 -83 0 -287
0 -453 l0 -301 -103 -1 -103 -1 0 629 0 629 353 0 c194 -1 353 -5 353 -9z"/>
<path d="M10889 7071 c0 -41 -1 -1345 0 -1356 1 -6 46 -10 116 -10 69 0 115 4
116 10 1 6 2 134 3 285 1 151 6 291 10 310 31 129 133 205 275 202 97 -1 160
-38 201 -118 l25 -48 0 -318 c0 -311 0 -318 20 -319 27 -1 153 -1 190 0 l30 1
-1 322 c-1 342 -5 388 -50 483 -45 97 -147 173 -260 194 -51 10 -184 8 -244
-4 -38 -8 -145 -59 -155 -75 -3 -5 -14 -14 -24 -19 -16 -9 -17 6 -16 237 l0
247 -117 1 -118 2 -1 -27z"/>
<path d="M13308 7081 c-3 -13 -2 -1335 1 -1366 1 -10 217 -12 227 -3 3 4 7
1105 4 1345 l0 42 -114 -1 c-97 -1 -115 -3 -118 -17z"/>
<path d="M10058 7034 c-2 -1 -19 -5 -38 -8 -99 -16 -229 -70 -304 -128 -196
-151 -285 -378 -251 -645 24 -197 165 -393 345 -482 118 -58 211 -79 342 -79
200 0 351 53 481 170 l48 43 -80 77 -81 78 -42 -39 c-184 -174 -529 -147 -678
53 -66 89 -90 158 -95 270 -7 168 69 319 205 407 86 56 254 87 348 64 12 -3
32 -7 45 -10 43 -9 143 -65 180 -101 l39 -37 71 69 c39 38 75 73 78 78 4 5 -9
25 -29 44 -128 118 -274 173 -469 177 -62 1 -114 1 -115 -1z"/>
<path d="M2192 6364 l0 -654 31 -1 c168 -4 677 0 732 5 257 26 460 155 556
352 52 107 69 190 64 318 -3 111 -16 174 -51 253 -78 179 -249 311 -464 359
-19 4 -42 10 -50 12 -8 3 -196 6 -416 8 l-401 3 -1 -655z m703 302 c90 -15
177 -83 213 -165 9 -21 17 -73 18 -124 5 -146 -41 -233 -151 -288 -60 -29 -72
-31 -193 -34 -71 -2 -133 0 -138 3 -11 8 -14 604 -3 612 10 7 206 4 254 -4z"/>
<path d="M15042 6833 c0 -54 0 -106 -1 -115 -1 -14 -13 -17 -77 -17 -42 0 -78
-2 -81 -5 -2 -2 -5 -44 -5 -93 l-2 -88 80 -3 c43 -2 81 -5 83 -8 2 -2 5 -129
6 -281 1 -241 4 -285 20 -333 23 -70 101 -150 165 -170 69 -21 70 -21 160 -22
64 0 99 5 142 21 84 32 85 36 48 129 l-32 80 -31 -17 c-20 -10 -56 -16 -97
-16 -87 0 -116 21 -136 95 -6 24 -7 510 -1 516 3 4 64 7 134 8 l128 1 1 93 1
92 -51 1 c-28 0 -88 0 -133 -1 l-83 -1 -1 58 c0 32 -1 84 0 116 l0 57 -118 0
-119 0 0 -97z"/>
<path d="M4320 6735 c-59 -15 -128 -51 -162 -83 l-28 -26 0 55 0 54 -203 -1
-202 -1 0 -511 0 -512 25 -1 c29 -1 369 -1 388 0 9 1 12 58 12 252 0 277 5
312 55 364 42 45 128 67 211 55 l44 -7 0 189 0 189 -47 -2 c-27 -2 -68 -8 -93
-14z"/>
<path d="M4926 6730 c-244 -64 -403 -252 -410 -489 -8 -254 147 -454 409 -527
130 -36 380 -24 490 23 47 20 165 100 165 112 0 10 -206 221 -216 221 -3 0
-34 -14 -68 -30 -110 -55 -237 -47 -306 19 -47 45 -50 61 -12 62 15 0 173 1
352 2 l325 2 2 87 c3 158 -44 282 -144 381 -136 136 -376 191 -587 137z m270
-297 c33 -23 72 -88 61 -99 -4 -4 -77 -8 -162 -8 -136 -1 -155 1 -155 15 0 27
43 81 80 101 46 25 134 21 176 -9z"/>
<path d="M6110 6746 c-3 -2 -29 -7 -57 -11 -74 -9 -169 -38 -233 -70 -30 -15
-56 -28 -57 -29 -1 -1 27 -62 62 -135 36 -73 65 -136 65 -141 0 -4 24 5 53 20
71 39 128 52 217 52 90 1 143 -19 170 -65 11 -17 20 -36 20 -42 0 -6 -60 -10
-158 -11 -113 -1 -174 -6 -217 -18 -33 -9 -64 -18 -70 -20 -63 -16 -145 -90
-172 -155 -18 -43 -24 -153 -10 -195 52 -162 180 -239 387 -233 70 2 107 9
142 24 47 21 118 83 118 103 0 5 3 10 8 10 4 0 6 -27 4 -60 l-2 -60 37 -1 c45
-1 345 -1 355 0 3 1 5 151 3 334 -3 351 -7 387 -55 478 -52 102 -172 184 -306
212 -67 14 -294 24 -304 13z m235 -712 c-14 -79 -143 -117 -200 -59 -33 32
-33 74 1 106 22 20 38 25 112 29 86 5 87 5 90 -19 2 -13 1 -39 -3 -57z"/>
<path d="M7530 6735 c-30 -9 -80 -33 -112 -54 l-56 -39 1 45 2 45 -203 1 -204
1 -1 -512 c-2 -506 -2 -512 18 -513 25 0 386 0 400 0 6 1 10 99 10 276 -1 243
1 281 17 324 28 73 90 103 156 76 62 -26 67 -51 70 -335 1 -140 3 -275 5 -299
l2 -44 175 1 c96 0 191 1 210 1 l35 1 0 276 c0 243 2 281 18 325 21 55 57 81
112 81 44 0 71 -16 92 -55 16 -28 18 -68 21 -327 2 -162 5 -297 7 -299 4 -3
301 -4 395 -2 l25 1 -1 328 c-1 348 -4 384 -36 471 -58 156 -179 236 -364 240
-122 3 -227 -35 -308 -109 l-42 -39 -40 41 c-21 23 -68 55 -103 71 -53 25 -78
30 -155 33 -60 3 -109 -1 -146 -11z"/>
<path d="M12448 6715 c-1 -1 -25 -6 -52 -9 -27 -4 -53 -9 -58 -12 -4 -3 -18
-7 -29 -9 -27 -5 -137 -58 -162 -77 -18 -13 -16 -18 24 -93 52 -99 46 -92 72
-75 43 27 116 60 148 65 18 3 36 8 42 12 19 12 159 4 207 -12 81 -27 130 -97
130 -186 l0 -28 -172 0 c-95 0 -186 -3 -203 -6 -16 -3 -43 -8 -60 -11 -43 -9
-126 -51 -158 -82 -49 -46 -71 -99 -73 -179 -3 -88 14 -146 62 -201 119 -140
444 -157 576 -31 23 21 43 39 44 39 2 0 2 -25 0 -55 l-3 -55 36 -1 c20 0 70
-2 113 -2 l76 -2 -2 350 c-2 292 -5 358 -19 400 -44 134 -136 214 -288 251
-26 7 -245 15 -251 9z m324 -645 c-2 -47 -8 -73 -25 -97 -45 -67 -133 -107
-232 -105 -111 2 -175 47 -182 129 -4 42 -1 52 24 81 39 46 90 57 269 57 l149
0 -3 -65z"/>
<path d="M14185 6713 c-11 -2 -45 -11 -75 -21 -242 -72 -381 -316 -335 -587
18 -99 59 -178 131 -252 67 -69 167 -123 265 -144 61 -13 193 -16 262 -5 94
14 207 68 260 124 l28 29 -61 72 c-52 60 -64 69 -80 61 -11 -6 -22 -15 -25
-20 -4 -6 -25 -20 -48 -32 -139 -71 -332 -50 -429 47 -29 29 -84 132 -75 141
2 3 180 6 393 7 l389 2 0 70 c1 69 -9 141 -24 180 -61 159 -165 262 -316 313
-39 13 -221 24 -260 15z m196 -198 c84 -29 160 -111 174 -189 l7 -36 -281 0
c-154 0 -281 4 -281 9 0 22 32 95 55 125 30 40 90 81 136 95 52 14 141 13 190
-4z"/>
<path d="M16058 6715 c-2 -2 -19 -6 -38 -9 -53 -8 -121 -34 -164 -63 -87 -57
-127 -125 -132 -223 -7 -163 87 -259 291 -294 17 -3 41 -8 55 -10 14 -3 42 -8
62 -11 111 -15 180 -41 197 -73 12 -23 8 -61 -9 -88 -49 -79 -312 -72 -485 12
-30 15 -57 25 -59 23 -1 -2 -21 -41 -44 -85 -46 -91 -46 -91 28 -126 111 -51
216 -72 370 -71 272 1 446 129 436 320 -9 165 -99 231 -381 278 -129 22 -174
36 -207 67 -36 33 -37 75 -3 112 36 38 69 48 174 51 96 3 191 -15 256 -49 17
-9 33 -16 37 -16 7 0 86 149 89 167 2 10 -48 37 -86 48 -16 4 -34 9 -40 11
-75 21 -161 32 -257 32 -48 -1 -89 -2 -90 -3z"/>
<path d="M12944 5205 c-52 -22 -66 -88 -26 -127 59 -60 162 -2 141 78 -8 28
-27 44 -70 57 -8 3 -28 -1 -45 -8z"/>
<path d="M6017 5180 c-22 -26 -24 -35 -16 -62 5 -18 9 -34 9 -35 0 -1 13 -9
29 -18 56 -29 118 2 127 64 12 75 -98 112 -149 51z"/>
<path d="M8819 5197 c-77 -59 -8 -173 84 -138 51 20 67 97 26 132 -25 22 -85
25 -110 6z"/>
<path d="M11503 5191 c-26 -31 -32 -62 -17 -92 38 -76 155 -50 157 34 1 48
-19 68 -76 74 -38 5 -48 2 -64 -16z"/>
<path d="M14726 5180 c-2 -3 -3 -67 -2 -143 1 -128 -3 -153 -20 -126 -3 6 -29
22 -57 34 -96 45 -232 19 -310 -58 -108 -109 -107 -308 3 -417 62 -63 126 -85
227 -77 61 5 80 10 116 37 l42 31 5 -33 c5 -32 6 -33 55 -32 28 1 55 2 60 3 7
1 11 129 11 390 l0 389 -64 4 c-35 2 -65 1 -66 -2z m-92 -345 c101 -48 123
-211 39 -287 -78 -71 -211 -50 -260 39 -83 155 65 322 221 248z"/>
<path d="M3859 5115 c-6 -196 -2 -715 6 -718 9 -2 482 -1 530 2 17 1 20 8 21
56 l0 55 -45 1 c-26 0 -119 1 -208 1 -90 0 -163 3 -164 7 -3 17 -4 177 -2 186
2 6 70 10 178 10 96 0 175 2 176 5 0 3 1 29 2 58 l2 52 -176 0 c-133 0 -178 3
-181 13 -2 6 -3 48 -3 92 l0 80 203 3 202 2 0 58 0 58 -270 -1 c-264 0 -270 0
-271 -20z"/>
<path d="M10878 5131 c-1 -4 -2 -169 -3 -368 -1 -247 2 -363 9 -366 6 -1 124
-2 261 -2 l250 1 0 59 0 59 -190 1 -190 0 -2 310 -1 310 -66 1 c-36 0 -67 -2
-68 -5z"/>
<path d="M13236 5082 c-2 -4 -3 -33 -2 -64 3 -62 5 -59 -59 -62 -29 -1 -30 -3
-33 -53 l-3 -52 48 -3 48 -3 0 -165 c1 -130 5 -171 17 -195 21 -38 55 -71 91
-84 41 -16 131 -13 176 5 l40 16 -19 46 c-11 30 -23 45 -32 43 -7 -3 -32 -6
-55 -9 -32 -3 -46 1 -62 17 -21 21 -23 34 -23 166 0 19 1 64 1 100 l1 65 75 0
74 0 0 54 -1 53 -74 -1 -73 -1 -3 65 -3 65 -63 2 c-34 0 -64 -2 -66 -5z"/>
<path d="M4574 4962 c-20 -3 -20 -8 -20 -280 0 -152 3 -279 7 -282 4 -3 34 -5
66 -5 l58 1 1 172 c2 149 4 175 21 204 55 95 191 106 249 21 17 -25 19 -50 21
-208 1 -99 2 -182 2 -185 1 -3 29 -5 63 -5 l63 1 3 184 c3 198 -3 240 -44 301
-39 57 -94 82 -184 83 -61 1 -87 -4 -128 -23 -29 -14 -52 -28 -52 -33 0 -4 -4
-8 -10 -8 -5 0 -10 15 -10 33 0 31 -1 32 -42 32 -24 0 -52 -1 -64 -3z"/>
<path d="M5435 4955 c-64 -19 -100 -42 -138 -85 -83 -98 -78 -269 11 -363 88
-93 281 -111 377 -35 l28 22 -6 -54 c-11 -94 -68 -141 -169 -141 -79 0 -121
12 -210 59 -9 4 -58 -73 -58 -91 0 -19 108 -66 167 -74 107 -15 207 -7 264 21
83 40 121 96 136 201 9 58 9 540 0 543 -4 1 -34 2 -66 2 l-59 0 4 -36 3 -37
-22 21 c-54 51 -176 73 -262 47z m170 -112 c126 -34 141 -227 22 -290 -41 -21
-123 -20 -171 2 -43 21 -86 87 -86 133 0 53 29 110 67 133 57 36 98 41 168 22z"/>
<path d="M6032 4959 c-15 -5 -17 -31 -17 -282 0 -176 4 -278 10 -280 5 -1 35
-2 65 -2 l55 0 0 284 0 284 -48 1 c-26 0 -56 -2 -65 -5z"/>
<path d="M6353 4962 l-32 -3 2 -282 2 -281 64 0 65 0 1 176 c1 168 2 178 25
211 31 45 51 57 110 64 63 7 104 -9 132 -55 20 -32 21 -48 22 -216 l1 -181 55
-1 c30 0 60 2 66 4 13 4 12 368 -1 417 -27 100 -119 157 -242 150 -63 -3 -101
-15 -143 -45 -37 -26 -39 -25 -34 9 4 26 2 29 -28 32 -18 2 -47 3 -65 1z"/>
<path d="M7215 4959 c-93 -22 -182 -112 -203 -205 -34 -153 38 -293 176 -343
64 -24 190 -25 247 -3 42 16 105 58 105 70 0 4 -15 25 -33 46 l-33 39 -40 -27
c-46 -30 -118 -40 -175 -26 -44 12 -107 67 -114 100 l-6 26 220 -1 221 0 0 46
c0 112 -62 214 -157 259 -52 24 -148 33 -208 19z m155 -118 c37 -19 80 -73 80
-100 0 -14 -19 -16 -155 -16 -173 0 -176 1 -132 66 43 65 137 88 207 50z"/>
<path d="M7863 4955 c-58 -18 -107 -50 -141 -93 -39 -52 -52 -86 -59 -157 -8
-90 18 -166 77 -226 66 -66 130 -88 245 -85 94 2 139 17 194 65 l25 21 -35 38
c-19 20 -35 38 -36 40 0 2 -18 -8 -40 -22 -41 -27 -106 -39 -165 -30 -44 8
-112 62 -126 102 l-10 28 215 -1 c158 0 217 3 225 12 14 18 2 105 -23 164 -52
119 -209 185 -346 144z m136 -101 c47 -10 111 -80 111 -122 0 -4 -71 -7 -157
-7 -87 0 -157 4 -155 8 1 4 2 13 2 21 0 22 51 77 85 92 33 15 67 17 114 8z"/>
<path d="M8400 4960 l-35 -5 0 -280 0 -280 55 1 c30 1 60 2 66 3 8 1 11 52 11
164 1 165 5 188 42 231 25 28 69 47 112 48 l39 0 0 65 0 65 -46 -7 c-52 -7
-98 -27 -131 -58 l-23 -20 0 39 c0 36 -2 39 -27 39 -16 0 -44 -2 -63 -5z"/>
<path d="M8818 4962 c-13 -3 -15 -40 -14 -284 l1 -282 55 -1 c30 -1 60 0 65 2
11 4 15 547 4 558 -7 7 -86 12 -111 7z"/>
<path d="M9130 4962 l-25 -3 2 -257 c1 -141 2 -268 2 -282 1 -24 3 -25 66 -25
l65 0 1 30 c0 17 1 92 1 167 0 121 2 142 21 180 37 72 135 101 206 61 50 -29
56 -52 61 -253 l5 -184 50 -1 c87 -2 81 -17 80 193 -1 110 -7 204 -14 229 -40
143 -247 199 -381 103 -36 -25 -38 -25 -35 5 2 14 -1 28 -7 31 -11 7 -62 10
-98 6z"/>
<path d="M9997 4959 c-122 -28 -199 -123 -203 -252 -3 -85 16 -142 65 -195 58
-62 120 -87 216 -86 80 0 124 13 168 52 14 12 17 13 18 1 3 -36 -3 -76 -14
-99 -13 -27 -56 -70 -72 -71 -5 0 -19 -2 -30 -5 -67 -14 -151 -1 -218 32 -27
13 -50 24 -52 24 -2 0 -15 -21 -30 -47 l-26 -48 21 -17 c59 -48 232 -76 342
-56 99 18 151 57 190 143 21 48 22 63 24 338 l1 287 -26 1 c-14 0 -43 1 -64 2
-37 2 -37 2 -37 -36 0 -35 -1 -37 -16 -22 -51 50 -166 74 -257 54z m183 -124
c61 -32 99 -110 84 -173 -32 -134 -222 -171 -308 -59 -55 73 -31 186 49 230
48 26 127 27 175 2z"/>
<path d="M11512 4960 c-18 -5 -18 -20 -18 -285 l1 -279 67 -1 66 0 0 282 0
281 -48 4 c-27 1 -58 1 -68 -2z"/>
<path d="M11855 4962 l-60 -3 2 -247 c1 -136 2 -263 2 -282 l1 -36 58 2 c31 1
62 3 67 3 6 1 10 66 10 174 1 145 3 177 18 205 24 43 72 72 122 72 53 0 85
-18 109 -60 18 -30 20 -54 22 -210 1 -96 2 -177 3 -180 0 -3 30 -5 64 -5 l64
0 1 166 c1 182 11 228 58 263 29 21 91 32 128 22 19 -5 60 -36 78 -59 0 -1 4
-90 7 -197 l6 -195 65 1 65 0 -1 190 c-2 226 -9 263 -68 319 -50 48 -98 64
-180 61 -67 -3 -126 -26 -168 -64 l-28 -25 -19 25 c-51 64 -200 85 -288 40
-23 -12 -44 -26 -48 -32 -12 -20 -22 -9 -19 20 2 16 0 30 -4 32 -4 2 -34 2
-67 0z"/>
<path d="M12914 4961 c-2 -2 -4 -131 -4 -285 l0 -281 62 1 c35 1 65 2 68 3 3
1 5 127 5 281 0 243 -2 280 -15 281 -88 3 -112 3 -116 0z"/>
<path d="M13793 4952 c-131 -46 -202 -157 -190 -299 9 -115 75 -202 186 -244
46 -17 72 -20 141 -17 87 5 135 22 189 68 l24 21 -34 37 c-19 20 -35 38 -36
40 -1 3 -14 -5 -30 -15 -90 -63 -227 -48 -280 30 -44 64 -51 62 192 62 l220 0
-2 63 c-3 109 -55 192 -148 237 -71 35 -161 42 -232 17z m174 -111 c30 -14 48
-31 62 -60 12 -22 21 -44 21 -48 0 -4 -72 -8 -160 -8 -88 0 -160 2 -160 4 0 3
9 24 21 47 36 76 130 104 216 65z"/>
</g>
</svg>
